<svg width="77" height="57" viewBox="0 0 77 57" fill="none" xmlns="http://www.w3.org/2000/svg">
<path d="M74.5753 10.7378C70.941 10.7378 69.0584 8.49928 67.6801 6.8515C66.3981 5.32808 65.7167 4.59746 64.2537 4.59746C62.7907 4.59746 62.1131 5.32808 60.8311 6.8515C59.4528 8.48762 57.5663 10.7378 53.9359 10.7378C50.3054 10.7378 48.4189 8.49928 47.0445 6.8515C45.7624 5.32808 45.081 4.59746 43.6219 4.59746C42.1628 4.59746 41.4813 5.32808 40.1993 6.8515C38.8249 8.48762 36.9384 10.7378 33.3079 10.7378C29.6774 10.7378 27.791 8.49928 26.4165 6.8515C25.1345 5.32808 24.4531 4.59746 22.9939 4.59746C21.5348 4.59746 20.8572 5.32808 19.5752 6.8515C18.2008 8.48762 16.3143 10.7378 12.6838 10.7378C9.05332 10.7378 7.1707 8.49928 5.79243 6.8515C4.51425 5.32808 3.83281 4.59746 2.37368 4.59746C1.11476 4.64798 0.0560244 3.66476 0.00212529 2.39395C-0.0517738 1.12313 0.926109 0.0544078 2.18504 0C2.25049 0 2.31209 0 2.37368 0.00388627C6.00417 0.00388627 7.88679 2.24627 9.26507 3.89016C10.5432 5.41358 11.2247 6.1442 12.6838 6.1442C14.1429 6.1442 14.8244 5.41358 16.1064 3.89016C17.4808 2.25793 19.3634 0.00388627 22.9939 0.00388627C26.6244 0.00388627 28.5109 2.24627 29.8853 3.89016C31.1673 5.41358 31.8449 6.1442 33.3079 6.1442C34.7709 6.1442 35.4485 5.41358 36.7305 3.89016C38.1049 2.25793 39.9914 0.00388627 43.6219 0.00388627C47.2524 0.00388627 49.1388 2.24627 50.5133 3.89016C51.7953 5.41358 52.4767 6.1442 53.9359 6.1442C55.395 6.1442 56.0803 5.41358 57.3623 3.89016C58.7367 2.25793 60.6232 0.00388627 64.2537 0.00388627C67.8842 0.00388627 69.7745 2.24627 71.1489 3.89016C72.4309 5.41358 73.1124 6.1442 74.5753 6.1442C75.8343 6.19472 76.8122 7.26733 76.7583 8.53815C76.7121 9.73123 75.7611 10.6911 74.5753 10.7378Z" fill="#0AC5D1"/>
<path d="M74.5753 33.8689C70.941 33.8689 69.0584 31.6304 67.6801 29.9826C66.3981 28.4592 65.7167 27.7286 64.2537 27.7286C62.7907 27.7286 62.1131 28.4592 60.8311 29.9826C59.4528 31.6187 57.5663 33.8689 53.9359 33.8689C50.3054 33.8689 48.4189 31.6265 47.0445 29.9826C45.7624 28.4592 45.081 27.7286 43.6219 27.7286C42.1628 27.7286 41.4813 28.4592 40.1993 29.9826C38.8249 31.6187 36.9384 33.8689 33.3079 33.8689C29.6774 33.8689 27.791 31.6265 26.4165 29.9826C25.1345 28.4592 24.4531 27.7286 22.9939 27.7286C21.5348 27.7286 20.8572 28.4592 19.5752 29.9826C18.2008 31.6148 16.3143 33.8689 12.6838 33.8689C9.05332 33.8689 7.1707 31.6304 5.79243 29.9826C4.51425 28.4592 3.83281 27.7286 2.37368 27.7286C1.11476 27.7791 0.0560244 26.7958 0.00212529 25.525C-0.0517738 24.2542 0.926109 23.1855 2.18504 23.1311C2.24664 23.1272 2.30824 23.1272 2.37368 23.1311C6.00417 23.1311 7.88679 25.3735 9.26507 27.0174C10.5432 28.5408 11.2247 29.2714 12.6838 29.2714C14.1429 29.2714 14.8244 28.5408 16.1064 27.0174C17.4808 25.3851 19.3634 23.1311 22.9939 23.1311C26.6244 23.1311 28.5109 25.3696 29.8853 27.0174C31.1673 28.5408 31.8449 29.2714 33.3079 29.2714C34.7709 29.2714 35.4485 28.5408 36.7305 27.0174C38.1049 25.3812 39.9914 23.1311 43.6219 23.1311C47.2524 23.1311 49.1388 25.3696 50.5133 27.0174C51.7953 28.5408 52.4767 29.2714 53.9359 29.2714C55.395 29.2714 56.0803 28.5408 57.3623 27.0174C58.7367 25.3812 60.6232 23.1311 64.2537 23.1311C67.8842 23.1311 69.7745 25.3696 71.1489 27.0174C72.4309 28.5408 73.1124 29.2714 74.5753 29.2714C75.8343 29.3219 76.8122 30.3945 76.7583 31.6654C76.7121 32.8623 75.7611 33.8222 74.5753 33.8689Z" fill="#0AC5D1"/>
<path d="M74.5756 57C70.9412 57 69.0586 54.7615 67.6803 53.1137C66.3983 51.5903 65.7169 50.8597 64.2539 50.8597C62.7909 50.8597 62.1133 51.5903 60.8313 53.1137C59.453 54.7498 57.5665 57 53.9361 57C50.3056 57 48.4191 54.7576 47.0447 53.1137C45.7626 51.5903 45.0812 50.8597 43.6221 50.8597C42.163 50.8597 41.4815 51.5903 40.1995 53.1137C38.8251 54.7498 36.9386 57 33.3081 57C29.6776 57 27.7912 54.7576 26.4167 53.1137C25.1347 51.5903 24.4533 50.8597 22.9941 50.8597C21.535 50.8597 20.8574 51.5903 19.5754 53.1137C18.201 54.7459 16.3145 57 12.684 57C9.05352 57 7.17091 54.7615 5.79263 53.1137C4.51445 51.5903 3.83301 50.8597 2.37389 50.8597C1.11496 50.9102 0.056226 49.9231 0.0023269 48.6561C-0.0477223 47.3853 0.930161 46.3166 2.18524 46.2622C2.24684 46.2583 2.30844 46.2583 2.37389 46.2622C6.00437 46.2622 7.88699 48.5046 9.26527 50.1485C10.5434 51.6719 11.2249 52.4025 12.684 52.4025C14.1431 52.4025 14.8246 51.6719 16.1066 50.1485C17.481 48.5162 19.3636 46.2622 22.9941 46.2622C26.6246 46.2622 28.5111 48.5046 29.8855 50.1485C31.1675 51.6719 31.8451 52.4025 33.3081 52.4025C34.7711 52.4025 35.4487 51.6719 36.7307 50.1485C38.1051 48.5162 39.9916 46.2622 43.6221 46.2622C47.2526 46.2622 49.139 48.5046 50.5135 50.1485C51.7955 51.6719 52.4769 52.4025 53.9361 52.4025C55.3952 52.4025 56.0805 51.6719 57.3625 50.1485C58.7369 48.5162 60.6234 46.2622 64.2539 46.2622C67.8844 46.2622 69.7747 48.5046 71.1491 50.1485C72.4311 51.6719 73.1126 52.4025 74.5756 52.4025C75.8345 52.453 76.8124 53.5256 76.7585 54.7965C76.7123 55.9934 75.7613 56.9533 74.5756 57Z" fill="#0AC5D1"/>
</svg>
