<svg viewBox="0 0 175 39" fill="none" xmlns="http://www.w3.org/2000/svg">
<path d="M26.1333 18.9499C26.1333 26.1664 20.2831 32.0166 13.0666 32.0166C5.85013 32.0166 0 26.1664 0 18.9499C0 11.7334 5.85013 5.8833 13.0666 5.8833C20.2831 5.8833 26.1333 11.7334 26.1333 18.9499Z" fill="#00BF8C"/>
<path d="M59.4422 12.2312C57.0995 12.2312 54.7567 13.0244 53.3732 15.2934C52.1742 13.3933 50.0528 12.2312 47.4702 12.2312C45.441 12.2312 43.4857 12.9137 42.2128 14.8138V12.7108H37.5273V30.5858H42.342V20.7905C42.342 18.0973 44.0575 16.7507 46.1236 16.7507C48.3188 16.7507 49.61 18.1711 49.61 20.7536V30.5858H54.4247V20.7905C54.4247 18.0973 56.1402 16.7507 58.2063 16.7507C60.383 16.7507 61.6927 18.1711 61.6927 20.7536V30.5858H66.4889V19.2041C66.4889 15.0536 63.6481 12.2312 59.4422 12.2312Z" fill="white"/>
<path d="M89.5463 12.7108H84.8424V14.6846C83.6618 13.2273 81.9462 12.2312 79.4928 12.2312C74.5675 12.2312 70.8412 16.2711 70.8412 21.6391C70.8412 27.0071 74.5675 31.047 79.4928 31.047C81.9462 31.047 83.6802 30.0509 84.8424 28.612V30.5858H89.5463V12.7108ZM80.3783 16.7138C83.1268 16.7138 84.99 18.8167 84.99 21.6391C84.99 24.4615 83.1268 26.5644 80.3783 26.5644C77.5559 26.5644 75.7665 24.3692 75.7665 21.6391C75.7665 18.909 77.5559 16.7138 80.3783 16.7138Z" fill="white"/>
<path d="M104.867 12.2312C102.672 12.2312 100.956 12.9875 99.8308 14.6662V12.7108H95.1637V30.5858H99.9783V20.8459C99.9783 18.1895 101.509 16.8245 103.741 16.8245C104.719 16.8245 105.863 17.0458 106.656 17.3963L107.376 12.6186C106.711 12.3788 105.9 12.2312 104.867 12.2312Z" fill="white"/>
<path d="M121.245 12.2312C118.847 12.2312 117.168 13.172 116.006 14.5739V4.02234H111.21V30.5858H115.914V28.612C117.076 30.0509 118.791 31.047 121.263 31.047C126.188 31.047 129.915 27.0071 129.915 21.6391C129.915 16.2711 126.188 12.2312 121.245 12.2312ZM120.359 16.7138C123.2 16.7138 124.971 18.909 124.971 21.6391C124.971 24.3692 123.2 26.5644 120.359 26.5644C117.629 26.5644 115.766 24.4615 115.766 21.6391C115.766 18.8167 117.629 16.7138 120.359 16.7138Z" fill="white"/>
<path d="M139.204 4.02234H134.389V30.5858H139.204V4.02234Z" fill="white"/>
<path d="M162.929 12.7108H157.654L152.894 21.8974L147.987 12.7108H142.527L150.238 26.7858L143.984 38.0384H149.26L162.929 12.7108Z" fill="white"/>
<path d="M167.604 0H162.785V0.64706H164.854V5.95976H165.535V0.64706H167.604V0Z" fill="white"/>
<path d="M174.879 0H173.836L171.758 4.50387L169.677 0H168.638V5.95976H169.323V0.800311L171.397 5.29993H172.116L174.193 0.766255V5.95976H174.879V0Z" fill="white"/>
</svg>
