<svg width="92" height="92" viewBox="0 0 92 92" fill="none" xmlns="http://www.w3.org/2000/svg">
<path d="M32.5 41C27.8042 41 24 37.1958 24 32.5C24 27.8042 27.8042 24 32.5 24C37.1958 24 41 27.8042 41 32.5C40.9922 37.1919 37.1919 40.9922 32.5 41ZM32.5 28.6024C30.3507 28.6024 28.6063 30.3468 28.6063 32.4961C28.6063 34.6454 30.3507 36.3898 32.5 36.3898C34.6493 36.3898 36.3937 34.6454 36.3937 32.4961C36.4015 30.3468 34.6649 28.5946 32.5156 28.5868C32.5117 28.5868 32.5039 28.5868 32.5 28.5868V28.6024Z" fill="#FFB800"/>
<path d="M32.5021 16C31.1243 16.0038 30.0042 14.9825 30 13.7261V13.7223V2.18733C30.0549 0.927082 31.2215 -0.0518282 32.6036 0.00212752C33.9053 0.0522292 34.9451 1.00031 35 2.18733V13.7223C35 14.9787 33.88 16 32.5021 16Z" fill="#FFB800"/>
<path d="M32.5015 65C31.1251 65.004 30.0062 63.9316 30.002 62.6122V62.6082V50.4952C29.9471 49.1718 31.0153 48.0589 32.396 48.0022C33.7766 47.9456 34.9377 48.9735 34.9968 50.2969C35.0011 50.3617 35.0011 50.4264 34.9968 50.4952V62.6082C34.9968 63.9275 33.878 65 32.5015 65Z" fill="#FFB800"/>
<path d="M62.6628 35H50.3372C48.9906 34.9451 47.9446 33.7785 48.0023 32.3964C48.0558 31.0947 49.0689 30.0549 50.3372 30H62.6628C64.0094 30.0549 65.0554 31.2215 64.9977 32.6035C64.9442 33.9011 63.9311 34.9451 62.6628 35Z" fill="#FFB800"/>
<path d="M13.6384 35H2.17395C0.921412 34.9451 -0.0515112 33.779 0.00211451 32.3975C0.0519098 31.0963 0.994189 30.0569 2.17395 30.002H13.6384C14.8909 29.9471 15.9443 31.016 15.9979 32.3975C16.0515 33.779 15.0786 34.9409 13.826 35C13.7609 35 13.6996 35 13.6384 35Z" fill="#FFB800"/>
<path d="M21.8116 24C21.2232 24 20.6606 23.7427 20.2498 23.2883L14.5649 16.9757C13.7544 16.0027 13.8247 14.4949 14.7203 13.6143C15.5679 12.782 16.8596 12.7981 17.6923 13.6465L23.3735 19.943C24.221 20.8799 24.2062 22.3836 23.3439 23.3044C22.9331 23.7427 22.3853 23.9839 21.8116 23.9839V24Z" fill="#FFB800"/>
<path d="M48.623 51C47.9785 51 47.3583 50.7478 46.9084 50.2916L40.6862 44.0236C39.7579 43.091 39.7741 41.5941 40.7186 40.6775C41.6631 39.761 43.1791 39.777 44.1074 40.7096L50.3336 46.9775C51.2498 47.9221 51.2173 49.419 50.2607 50.3236C49.8188 50.7398 49.2311 50.976 48.623 50.98V51Z" fill="#FFB800"/>
<path d="M43.3655 24C42.0607 24 41 22.9313 41 21.6075C41 20.9639 41.2562 20.3486 41.7084 19.8992L47.9764 13.6853C48.9089 12.7582 50.4059 12.7744 51.3225 13.7177C52.239 14.6609 52.223 16.1749 51.2904 17.1019L45.0185 23.3159C44.5782 23.7531 43.9819 24 43.3655 24Z" fill="#FFB800"/>
<path d="M16.3655 51C15.0567 50.996 14 49.9236 14 48.6003C14 47.9609 14.2562 47.3459 14.7084 46.8967L20.9764 40.685C21.9089 39.7583 23.4059 39.7745 24.3225 40.7174C25.239 41.6603 25.223 43.1737 24.2904 44.1004L18.0225 50.3161C17.5782 50.7532 16.9859 51 16.3655 51Z" fill="#FFB800"/>
<path d="M52.3157 92C51.7008 92.0039 51.1094 91.7572 50.6786 91.3225C49.7738 90.4179 49.7738 88.9533 50.6786 88.0487L88.0471 50.6784C88.9519 49.7739 90.4167 49.7739 91.3214 50.6784C92.2262 51.583 92.2262 53.0476 91.3214 53.9522L53.9529 91.3147C53.5181 91.7532 52.9306 92 52.3157 92Z" fill="#FFB800"/>
<path d="M71 92C69.8968 92 69 90.9377 69 89.6309V70.3691C69 69.0623 69.8968 68 71 68C72.1032 68 73 69.0623 73 70.3691V89.6469C72.9932 90.9497 72.0998 92 71 92Z" fill="#FFB800"/>
</svg>
