<svg width="58" height="64" viewBox="0 0 58 64" fill="none" xmlns="http://www.w3.org/2000/svg">
<path d="M23.6822 33.0492C23.8442 33.1888 23.9478 33.3841 23.9729 33.5984C24.0834 35.0007 19.8248 36.4903 14.4491 36.9414C9.82606 37.3267 5.89061 36.8062 4.81945 35.769C4.65748 35.6294 4.55384 35.4341 4.52662 35.222C4.41614 33.8197 8.67465 32.3301 14.0503 31.879C18.6734 31.4937 22.611 32.012 23.6822 33.0492ZM26.2327 30.4152C25.0837 29.3027 21.9296 27.5439 13.7489 28.2192C11.1207 28.4032 8.52349 28.9108 6.01852 29.7279C3.52752 30.6018 0.610777 32.3155 0.857416 35.525C0.950301 36.6253 1.44734 37.6506 2.24928 38.4055C3.39822 39.518 6.55234 41.2768 14.7331 40.6015C26.3729 39.6356 27.8011 35.6126 27.6159 33.3046C27.523 32.2043 27.026 31.179 26.2241 30.4241L26.2327 30.4152Z" fill="#00BA6C"/>
<path d="M31.9454 37.3803C29.2653 34.7851 29.2022 30.5012 31.8045 27.8137C34.4067 25.1262 38.6905 25.0514 41.3706 27.6465C44.0507 30.2417 44.1139 34.5256 41.5116 37.2131C38.9048 39.8963 34.6276 39.9688 31.9454 37.3803ZM38.8158 30.285C37.5891 29.0971 35.6268 29.1314 34.4357 30.3615C33.2446 31.5916 33.2735 33.554 34.5002 34.7418C35.727 35.9297 37.6892 35.8954 38.8803 34.6653C40.0714 33.4352 40.0425 31.4728 38.8158 30.285Z" fill="#00BA6C"/>
<path d="M46.2819 44.8805C47.9077 46.5412 49.326 48.3938 50.5013 50.3997C53.2899 55.004 54.5759 59.3279 53.3731 60.0587C52.7739 60.4241 51.6698 59.8256 50.3653 58.5624C48.7395 56.9018 47.3211 55.0492 46.1459 53.0433C43.3573 48.439 42.0712 44.1151 43.274 43.3843C43.8733 43.0189 44.9796 43.6195 46.2819 44.8805ZM48.8324 42.2465C46.9456 40.4196 44.119 38.5894 41.3769 40.2562C36.7699 43.0708 40.4174 50.6657 43.0129 54.9492C44.352 57.2217 45.9645 59.3185 47.8148 61.1964C49.7015 63.0234 52.5281 64.8536 55.2703 63.1867C56.7858 62.2664 58.3064 60.2069 56.9442 55.628C55.2669 50.6187 52.4985 46.0469 48.841 42.2376L48.8324 42.2465Z" fill="#00BA6C"/>
<path d="M52.1681 4.15519C53.1504 5.10631 52.0667 9.31171 49.6296 13.8475C47.0775 18.5999 44.0003 21.9157 42.7638 21.2538C42.7086 21.2219 42.6555 21.1834 42.6088 21.1382C41.6265 20.1871 42.7103 15.9817 45.1473 11.4459C47.7038 6.69339 50.7766 3.37771 52.0153 4.04175C52.0705 4.06927 52.1215 4.11 52.1681 4.15519ZM54.7208 1.51896C54.4319 1.23921 54.1063 1.00173 53.753 0.810746C52.1898 -0.0250696 49.647 -0.285132 46.3931 3.2265C44.6457 5.20459 43.1466 7.38426 41.9302 9.72549C39.3716 14.4846 36.9716 20.7876 40.0628 23.7809C40.3517 24.0606 40.6795 24.3003 41.0349 24.489C42.5938 25.3249 45.1388 25.5871 48.3927 22.0755C50.138 20.0996 51.6415 17.9199 52.8623 15.583C55.4209 10.8238 57.8209 4.52081 54.7274 1.52541L54.7208 1.51896Z" fill="#00BA6C"/>
</svg>
